<?xml version="1.0" standalone="no"?>
<svg xmlns="http://www.w3.org/2000/svg" width="24" height="24"><rect width="24" height="24" opacity="0"></rect><g><path d="M19.61 1.99Q19.56 1.61 19.31 1.42Q19.06 1.22 18.73 1.25Q18.41 1.27 18.14 1.54Q17.38 2.38 15.82 2.86Q14.26 3.34 11.64 2.71Q7.87 1.85 5.57 2.62Q5.06 2.78 4.63 3Q4.2 3.22 3.89 3.48L3.7 2.66Q3.65 2.47 3.52 2.33Q3.38 2.18 3.19 2.12Q3 2.06 2.81 2.09Q2.5 2.18 2.34 2.44Q2.18 2.69 2.23 3L6.6 22.15Q6.67 22.44 6.95 22.61Q7.22 22.78 7.51 22.7Q7.8 22.63 7.97 22.38Q8.14 22.13 8.06 21.82L4.27 5.14Q4.44 4.92 4.91 4.58Q5.38 4.25 6 4.03Q7.9 3.41 11.26 4.15Q13.73 4.73 15.47 4.4Q17.21 4.08 18.38 3.29L20.16 10.46Q19.92 10.97 19.19 11.33Q18.46 11.69 17.76 11.74Q16.49 11.88 15.55 11.82Q14.62 11.76 13.42 11.5L12.89 11.38Q11.3 11.02 10.56 10.93Q9.82 10.85 8.83 10.99Q8.11 11.09 7.1 11.47Q6.1 11.86 5.57 12.19L5.93 13.8Q6.43 13.39 7.56 12.98Q8.69 12.58 9.24 12.48Q9.94 12.36 10.52 12.42Q11.11 12.48 12.55 12.84Q13.61 13.1 15.01 13.26Q16.42 13.42 17.93 13.25Q19.15 13.1 20.17 12.47Q21.19 11.83 21.79 10.63L19.61 1.99Z" fill="rgba(0,0,0,0.9019607843137255)"></path></g></svg>