<?xml version="1.0" standalone="no"?>
<svg xmlns="http://www.w3.org/2000/svg" width="24" height="24"><rect width="24" height="24" opacity="0"></rect><g><path d="M16.08 2.83Q15.74 2.5 15.25 2.5Q14.76 2.5 14.4 2.83L13.63 3.6Q13.27 3.98 13.28 4.46Q13.3 4.94 13.68 5.33Q13.73 5.38 13.74 5.44Q13.75 5.5 13.7 5.54Q13.68 5.54 13.66 5.57L8.98 8.88Q7.92 8.14 6.58 8.26Q5.23 8.38 4.32 9.29L3.7 9.91Q3.36 10.25 3.36 10.73Q3.36 11.21 3.7 11.54L7.13 14.98L2.57 21.26Q2.52 21.34 2.54 21.41Q2.57 21.48 2.64 21.5Q2.71 21.53 2.78 21.48L9 16.87L12.43 20.28Q12.77 20.64 13.26 20.64Q13.75 20.64 14.06 20.28L14.57 19.8Q15.7 18.67 15.74 17.33Q15.79 15.98 15.07 14.95L18.36 10.3Q18.43 10.22 18.5 10.22Q18.58 10.22 18.65 10.3Q19.01 10.63 19.49 10.66Q19.97 10.68 20.3 10.34L21.12 9.53Q21.46 9.19 21.46 8.68Q21.46 8.16 21.1 7.85L16.08 2.83ZM19.49 9.05Q19.39 9 19.34 8.96Q19.3 8.93 19.2 8.88Q18.98 8.78 18.78 8.74Q18.58 8.69 18.36 8.71Q17.98 8.74 17.65 8.93Q17.33 9.12 17.14 9.41L13.15 15.07L13.61 15.53Q14.02 15.96 14.16 16.54Q14.3 17.11 14.16 17.66Q14.02 18.22 13.61 18.62L13.27 18.96L4.99 10.73L5.38 10.34Q5.78 9.94 6.34 9.79Q6.89 9.65 7.44 9.79Q7.99 9.94 8.4 10.34L8.86 10.8L14.52 6.82Q14.81 6.6 15 6.28Q15.19 5.95 15.22 5.59Q15.24 5.3 15.12 4.92Q15.1 4.8 15.04 4.69Q14.98 4.58 14.88 4.49L15.24 4.13L19.82 8.71L19.49 9.05Z" fill="rgba(0,0,0,0.9019607843137255)"></path></g></svg>